{
	"patcher" : 	{
		"fileversion" : 1,
		"appversion" : 		{
			"major" : 7,
			"minor" : 3,
			"revision" : 5,
			"architecture" : "x86",
			"modernui" : 1
		}
,
		"rect" : [ 59.0, 104.0, 640.0, 480.0 ],
		"bglocked" : 0,
		"openinpresentation" : 0,
		"default_fontsize" : 12.0,
		"default_fontface" : 0,
		"default_fontname" : "Arial",
		"gridonopen" : 1,
		"gridsize" : [ 15.0, 15.0 ],
		"gridsnaponopen" : 1,
		"objectsnaponopen" : 1,
		"statusbarvisible" : 2,
		"toolbarvisible" : 1,
		"lefttoolbarpinned" : 0,
		"toptoolbarpinned" : 0,
		"righttoolbarpinned" : 0,
		"bottomtoolbarpinned" : 0,
		"toolbars_unpinned_last_save" : 0,
		"tallnewobj" : 0,
		"boxanimatetime" : 200,
		"enablehscroll" : 1,
		"enablevscroll" : 1,
		"devicewidth" : 0.0,
		"description" : "",
		"digest" : "",
		"tags" : "",
		"style" : "",
		"subpatcher_template" : "",
		"boxes" : [ 			{
				"box" : 				{
					"fontface" : 2,
					"id" : "obj-3",
					"maxclass" : "comment",
					"numinlets" : 1,
					"numoutlets" : 0,
					"patching_rect" : [ 298.5, 283.625, 195.0, 20.0 ],
					"style" : "",
					"text" : "based on lectures by Onur Yildirim ",
					"textcolor" : [ 0.011765, 0.396078, 0.752941, 1.0 ]
				}

			}
, 			{
				"box" : 				{
					"fontface" : 2,
					"id" : "obj-15",
					"linecount" : 3,
					"maxclass" : "comment",
					"numinlets" : 1,
					"numoutlets" : 0,
					"patching_rect" : [ 111.5, 217.375, 175.0, 47.0 ],
					"style" : "",
					"text" : "We'll use this method of sound file playback in RTcmix scripts used with Unity.",
					"textcolor" : [ 0.011765, 0.396078, 0.752941, 1.0 ]
				}

			}
, 			{
				"box" : 				{
					"fontface" : 2,
					"id" : "obj-14",
					"linecount" : 2,
					"maxclass" : "comment",
					"numinlets" : 1,
					"numoutlets" : 0,
					"patching_rect" : [ 410.5, 160.5, 132.0, 33.0 ],
					"style" : "",
					"text" : "<= to reset, press this message box",
					"textcolor" : [ 0.011765, 0.396078, 0.752941, 1.0 ]
				}

			}
, 			{
				"box" : 				{
					"id" : "obj-9",
					"linecount" : 2,
					"maxclass" : "message",
					"numinlets" : 2,
					"numoutlets" : 1,
					"outlettype" : [ "" ],
					"patching_rect" : [ 328.5, 160.5, 78.0, 35.0 ],
					"style" : "",
					"text" : ";\rdsp sr 48000"
				}

			}
, 			{
				"box" : 				{
					"fontface" : 2,
					"id" : "obj-8",
					"linecount" : 5,
					"maxclass" : "comment",
					"numinlets" : 1,
					"numoutlets" : 0,
					"patching_rect" : [ 410.5, 81.5, 134.0, 74.0 ],
					"style" : "",
					"text" : "<= set sampling rate to 44.1kHz (normally we use 48000) with a \"remote\" message box (i.e. no patch chords)",
					"textcolor" : [ 0.011765, 0.396078, 0.752941, 1.0 ]
				}

			}
, 			{
				"box" : 				{
					"id" : "obj-7",
					"maxclass" : "newobj",
					"numinlets" : 1,
					"numoutlets" : 1,
					"outlettype" : [ "bang" ],
					"patching_rect" : [ 328.5, 55.0, 58.0, 22.0 ],
					"style" : "",
					"text" : "loadbang"
				}

			}
, 			{
				"box" : 				{
					"id" : "obj-6",
					"linecount" : 2,
					"maxclass" : "message",
					"numinlets" : 2,
					"numoutlets" : 1,
					"outlettype" : [ "" ],
					"patching_rect" : [ 328.5, 81.5, 78.0, 35.0 ],
					"style" : "",
					"text" : ";\rdsp sr 44100"
				}

			}
, 			{
				"box" : 				{
					"fontface" : 1,
					"id" : "obj-24",
					"maxclass" : "comment",
					"numinlets" : 1,
					"numoutlets" : 0,
					"patching_rect" : [ 182.5, 154.5, 78.0, 20.0 ],
					"style" : "",
					"text" : "<live.gain~>",
					"textcolor" : [ 0.870588, 0.415686, 0.062745, 1.0 ]
				}

			}
, 			{
				"box" : 				{
					"fontface" : 1,
					"id" : "obj-5",
					"maxclass" : "comment",
					"numinlets" : 1,
					"numoutlets" : 0,
					"patching_rect" : [ 11.5, 55.0, 30.0, 20.0 ],
					"style" : "",
					"text" : "<b>",
					"textcolor" : [ 0.870588, 0.415686, 0.062745, 1.0 ]
				}

			}
, 			{
				"box" : 				{
					"fontface" : 2,
					"id" : "obj-23",
					"linecount" : 2,
					"maxclass" : "comment",
					"numinlets" : 1,
					"numoutlets" : 0,
					"patching_rect" : [ 68.5, 55.0, 164.0, 33.0 ],
					"style" : "",
					"text" : "<= bang to hear transposed copies of your sound file",
					"textcolor" : [ 0.011765, 0.396078, 0.752941, 1.0 ]
				}

			}
, 			{
				"box" : 				{
					"fontface" : 2,
					"id" : "obj-17",
					"linecount" : 3,
					"maxclass" : "comment",
					"numinlets" : 1,
					"numoutlets" : 0,
					"patching_rect" : [ 167.5, 89.571426, 156.0, 47.0 ],
					"style" : "",
					"text" : "<= Lock patch (cmd. + E), double-click the rtcmix~ object to open & see script.",
					"textcolor" : [ 0.011765, 0.396078, 0.752941, 1.0 ]
				}

			}
, 			{
				"box" : 				{
					"fontface" : 3,
					"fontsize" : 20.0,
					"id" : "obj-13",
					"maxclass" : "comment",
					"numinlets" : 1,
					"numoutlets" : 0,
					"patching_rect" : [ 11.5, 9.0, 376.0, 29.0 ],
					"style" : "",
					"text" : "8. Transposed Grains"
				}

			}
, 			{
				"box" : 				{
					"fontface" : 2,
					"id" : "obj-11",
					"maxclass" : "comment",
					"numinlets" : 1,
					"numoutlets" : 0,
					"patching_rect" : [ 390.5, 55.0, 152.0, 20.0 ],
					"style" : "",
					"text" : "<= \"bang\" on loading patch",
					"textcolor" : [ 0.011765, 0.396078, 0.752941, 1.0 ]
				}

			}
, 			{
				"box" : 				{
					"id" : "obj-10",
					"maxclass" : "live.gain~",
					"numinlets" : 2,
					"numoutlets" : 5,
					"orientation" : 1,
					"outlettype" : [ "signal", "signal", "", "float", "list" ],
					"parameter_enable" : 1,
					"patching_rect" : [ 42.5, 154.5, 136.0, 48.0 ],
					"presentation_rect" : [ 0.0, 0.0, 0.0, 34.0 ],
					"saved_attribute_attributes" : 					{
						"valueof" : 						{
							"parameter_linknames" : 1,
							"parameter_longname" : "rtcmix",
							"parameter_shortname" : "rtcmix",
							"parameter_type" : 0,
							"parameter_mmin" : -70.0,
							"parameter_mmax" : 6.0,
							"parameter_initial" : [ 0.0 ],
							"parameter_unitstyle" : 4
						}

					}
,
					"varname" : "rtcmix"
				}

			}
, 			{
				"box" : 				{
					"bgmode" : 0,
					"border" : 0,
					"clickthrough" : 0,
					"enablehscroll" : 0,
					"enablevscroll" : 0,
					"id" : "obj-12",
					"lockeddragscroll" : 0,
					"maxclass" : "bpatcher",
					"name" : "z.credits.v01.bp.maxpat",
					"numinlets" : 0,
					"numoutlets" : 0,
					"offset" : [ 0.0, 0.0 ],
					"patching_rect" : [ 298.5, 206.625, 244.0, 75.0 ],
					"viewvisibility" : 1
				}

			}
, 			{
				"box" : 				{
					"id" : "obj-4",
					"maxclass" : "button",
					"numinlets" : 1,
					"numoutlets" : 1,
					"outlettype" : [ "bang" ],
					"patching_rect" : [ 42.5, 55.0, 24.0, 24.0 ],
					"style" : ""
				}

			}
, 			{
				"box" : 				{
					"id" : "obj-2",
					"maxclass" : "ezdac~",
					"numinlets" : 2,
					"numoutlets" : 0,
					"patching_rect" : [ 42.5, 233.375, 48.25, 48.25 ],
					"style" : ""
				}

			}
, 			{
				"box" : 				{
					"color" : [ 0.784314, 0.145098, 0.023529, 1.0 ],
					"fontsize" : 28.0,
					"id" : "obj-1",
					"maxclass" : "newobj",
					"numinlets" : 2,
					"numoutlets" : 3,
					"outlettype" : [ "signal", "signal", "" ],
					"patching_rect" : [ 42.5, 89.571426, 123.0, 40.0 ],
					"save" : [ "#N", "rtcmix~", 2, 0, ";", "#X", "restore", 0, 1251, 1251, "// To load a sound file from disk, FULL PATH are required for the rtcmix~ object in Max.\r\n// A relative pathname (e.g. \"test.samples/stereo-test.aif\") will not work. :(\r\n// Remember: You can drag/drop a sound file onto a fresh terminal window to get its full path!\r\n// Replace the following FULL PATH to this sound file with one on YOUR computer:\r\n\r\nrtinput(\"/Users/louisgoldford/Desktop/ENT3320-Louis/tutorial.03.treatments/test.samples/stereo-test.aif\")\r\n\r\n// Syntax for the TRANS Instrument: \r\n// TRANS(outsk, insk, dur, AMP, TRANSP[, inputchan, PAN])\n// source: http://rtcmix.org/reference/instruments/TRANS.php\r\n// TRANS only does one channel at a time\n// uses oct.pc notation, so 0.03 = up 3 half-steps; -0.05 = down 5 half-steps\r\n// half-steps are the successive black-and-white keys on a keyboard...\r\n\r\namp = 1.0\nampenv = maketable(\"line\", 1000, 0,0, 5,1, 50,0)\n\nbasedur = 0.32\noutsk = 0.0\r\n\nfor (i = 0; i < 300; i = i + 1) {\n\tinsk = irand(0.0, 2.8) // a range within the file targetting the piano sound\n\ttransp = irand(-0.11, 0.11) // +/- a Major 7th\n\tdur = translen(basedur, transp)\n\n// Random stereo panning using only the RIGHT channel (piano)\n\tTRANS(outsk, insk, dur, amp*ampenv, transp, 1, random())\n\toutsk = outsk + irand(0.08, 0.16)\n}\n", ";" ],
					"style" : "",
					"text" : "rtcmix~ 2"
				}

			}
 ],
		"lines" : [ 			{
				"patchline" : 				{
					"destination" : [ "obj-10", 1 ],
					"source" : [ "obj-1", 1 ]
				}

			}
, 			{
				"patchline" : 				{
					"destination" : [ "obj-10", 0 ],
					"source" : [ "obj-1", 0 ]
				}

			}
, 			{
				"patchline" : 				{
					"destination" : [ "obj-2", 1 ],
					"source" : [ "obj-10", 1 ]
				}

			}
, 			{
				"patchline" : 				{
					"destination" : [ "obj-2", 0 ],
					"source" : [ "obj-10", 0 ]
				}

			}
, 			{
				"patchline" : 				{
					"destination" : [ "obj-1", 0 ],
					"source" : [ "obj-4", 0 ]
				}

			}
, 			{
				"patchline" : 				{
					"destination" : [ "obj-6", 0 ],
					"source" : [ "obj-7", 0 ]
				}

			}
 ],
		"parameters" : 		{
			"obj-10" : [ "rtcmix", "rtcmix", 0 ]
		}
,
		"dependency_cache" : [ 			{
				"name" : "rtcmix~.mxo",
				"type" : "iLaX"
			}
 ],
		"autosave" : 0
	}

}
